<?xml version="1.0" encoding="utf-8"?><svg  xmlns="http://www.w3.org/2000/svg" xmlns:xlink="http://www.w3.org/1999/xlink"><style>:root>svg{display:none}:root>svg:target{display:block}</style><svg viewBox="0 0 17 16" id="arrow-down" xmlns="http://www.w3.org/2000/svg"><path d="M3.26 5.313a.5.5 0 01.65-.048l.057.048L8.28 9.626l4.313-4.313a.5.5 0 01.65-.048l.057.048a.5.5 0 01.048.651l-.048.056-4.667 4.667a.5.5 0 01-.65.048l-.057-.048L3.26 6.02a.5.5 0 010-.707z"/></svg><svg fill="none" viewBox="0 0 48 48" id="cursor" xmlns="http://www.w3.org/2000/svg"><path fill-rule="evenodd" clip-rule="evenodd" d="M43.623 37.821A23.89 23.89 0 0048 24C48 10.745 37.255 0 24 0S0 10.745 0 24s10.745 24 24 24c5.659 0 10.86-1.959 14.963-5.235l-10.42-10.42L25.57 44 13 12l32 12.57-11.655 2.973L43.623 37.82z" fill="#F0998D"/></svg><svg fill="none" viewBox="0 0 18 18" id="dot-bg" xmlns="http://www.w3.org/2000/svg"><circle cx="3" cy="3" r="3" fill="#FFEBE7"/></svg><svg fill="none" viewBox="0 0 31 31" id="fb" xmlns="http://www.w3.org/2000/svg"><g clip-path="url(#dclip0_4_1810)"><path d="M20.653 5.145h2.829V.218C22.994.151 21.315 0 19.36 0c-4.078 0-6.872 2.565-6.872 7.28v4.34h-4.5v5.508h4.5v13.858h5.518V17.13h4.319l.685-5.508h-5.005V7.827c.001-1.592.43-2.682 2.648-2.682z" fill="#fff"/></g><defs><clipPath id="dclip0_4_1810"><path fill="#fff" d="M0 0h30.986v30.986H0z"/></clipPath></defs></svg><svg fill="none" viewBox="0 0 132 32" id="header-logo" xmlns="http://www.w3.org/2000/svg"><path d="M56.419 25.172c-1.661 0-3.086-.376-4.272-1.128a6.024 6.024 0 01-2.467-3.092l2.034-1.128c.696 2.077 2.28 3.115 4.756 3.115 1.22 0 2.153-.237 2.797-.711.644-.49.967-1.137.967-1.938 0-.818-.323-1.431-.967-1.84-.644-.41-1.72-.843-3.23-1.3a74.222 74.222 0 01-1.703-.54c-.39-.148-.882-.36-1.475-.638-.577-.295-1.009-.59-1.297-.883-.288-.311-.551-.712-.789-1.203-.22-.49-.33-1.046-.33-1.668 0-1.489.542-2.666 1.627-3.533 1.085-.883 2.408-1.325 3.968-1.325 1.407 0 2.627.344 3.662 1.03a6.447 6.447 0 012.365 2.724l-1.984 1.104c-.763-1.767-2.11-2.65-4.044-2.65-.966 0-1.746.23-2.34.687-.592.458-.89 1.08-.89 1.865 0 .752.28 1.325.84 1.717.56.393 1.526.802 2.9 1.227.49.147.838.254 1.042.319.203.065.517.18.94.343.441.164.764.295.967.393.203.098.475.237.814.417.356.18.619.352.788.515.17.164.365.368.585.614.237.229.407.466.509.711.101.245.186.532.254.859.085.31.127.646.127 1.006 0 1.505-.568 2.707-1.704 3.606-1.136.883-2.619 1.325-4.45 1.325zM71.477 12.267c1.492 0 2.687.458 3.586 1.374.898.9 1.347 2.126 1.347 3.68v7.532h-2.212v-7.41c0-.997-.28-1.766-.84-2.306-.559-.556-1.33-.834-2.313-.834-1.102 0-1.992.336-2.67 1.006-.679.655-1.018 1.669-1.018 3.043v6.501h-2.212V12.586h2.212v1.766c.899-1.39 2.272-2.085 4.12-2.085zM80.618 10.353c-.424 0-.78-.139-1.068-.417a1.347 1.347 0 01-.432-1.006c0-.392.144-.728.432-1.006a1.435 1.435 0 011.068-.441c.407 0 .755.147 1.043.441.288.278.432.614.432 1.006 0 .393-.144.728-.432 1.006a1.447 1.447 0 01-1.043.417zm-1.119 14.5V12.586h2.213v12.267h-2.213zM95.844 24.853h-2.746l-5.799-5.815v5.815h-2.212V7.68h2.212v10.33l5.493-5.423h2.849l-6.078 5.937 6.281 6.33zM104.92 12.267c1.78 0 3.298.63 4.552 1.89 1.255 1.242 1.882 2.763 1.882 4.563 0 1.799-.627 3.328-1.882 4.588-1.254 1.243-2.772 1.864-4.552 1.864-2.102 0-3.704-.81-4.806-2.429v7.017h-2.213V12.586h2.213v2.11c1.102-1.62 2.704-2.429 4.806-2.429zm-.279 10.844c1.271 0 2.339-.417 3.204-1.251.864-.85 1.297-1.897 1.297-3.14s-.433-2.282-1.297-3.116c-.865-.85-1.933-1.276-3.204-1.276-1.289 0-2.366.425-3.23 1.276-.865.834-1.297 1.873-1.297 3.116s.432 2.29 1.297 3.14c.864.834 1.941 1.251 3.23 1.251zM115.113 10.353c-.424 0-.78-.139-1.068-.417a1.348 1.348 0 01-.432-1.006c0-.392.144-.728.432-1.006a1.435 1.435 0 011.068-.441c.407 0 .755.147 1.043.441.288.278.432.614.432 1.006 0 .393-.144.728-.432 1.006a1.448 1.448 0 01-1.043.417zm-1.119 14.5V12.586h2.213v12.267h-2.213zM125.558 25.172c-1.916 0-3.509-.613-4.781-1.84-1.271-1.243-1.907-2.78-1.907-4.612 0-1.832.636-3.362 1.907-4.588 1.272-1.243 2.865-1.865 4.781-1.865 1.255 0 2.382.294 3.382.883 1.001.573 1.747 1.35 2.238 2.331l-1.856 1.03c-.322-.654-.822-1.177-1.501-1.57-.661-.392-1.415-.589-2.263-.589-1.271 0-2.34.418-3.204 1.252-.848.834-1.272 1.873-1.272 3.116 0 1.226.424 2.257 1.272 3.09.864.835 1.933 1.252 3.204 1.252.848 0 1.611-.188 2.289-.564a4.009 4.009 0 001.551-1.57l1.882 1.055c-.543.965-1.322 1.742-2.34 2.33-1.017.573-2.144.86-3.382.86z" fill="#F0998D"/><ellipse cx="17.04" cy="16" rx="16.32" ry="16" fill="#F0998D"/><path d="M14.249 6.261v3.215s-2.52.19-2.48 2.458a2.326 2.326 0 00.557 1.634c.39.455.94.75 1.542.825h6.104s5.421.078 5.343 6.052c-.066 4.938-5.726 5.294-5.726 5.294v-3.215s2.4-.192 2.48-2.269c.037-.338 0-.68-.109-1.003a2.383 2.383 0 00-.52-.87 2.441 2.441 0 00-.84-.583 2.484 2.484 0 00-1.011-.191h-5.912s-5.199-.466-5.152-5.674c.046-5.108 4.78-5.663 5.724-5.673z" fill="#fff"/></svg><svg fill="none" viewBox="0 0 32 31" id="in" xmlns="http://www.w3.org/2000/svg"><g clip-path="url(#fclip0_4_1806)" fill="#fff"><path d="M31.923 30.986v-.002h.007V19.62c0-5.56-1.197-9.842-7.696-9.842-3.124 0-5.221 1.715-6.077 3.34h-.09v-2.82h-6.163v20.686h6.417V20.741c0-2.697.511-5.305 3.851-5.305 3.291 0 3.34 3.078 3.34 5.478v10.072h6.41zM1.457 10.3h6.424v20.686H1.457V10.3zM4.665 0a3.722 3.722 0 00-3.72 3.72c0 2.055 1.666 3.757 3.72 3.757 2.054 0 3.721-1.702 3.721-3.756A3.724 3.724 0 004.666 0z"/></g><defs><clipPath id="fclip0_4_1806"><path fill="#fff" transform="translate(.944)" d="M0 0h30.986v30.986H0z"/></clipPath></defs></svg><svg fill="none" viewBox="0 0 32 31" id="inst" xmlns="http://www.w3.org/2000/svg"><g clip-path="url(#gclip0_4_1802)" fill="#fff"><path d="M16.471 7.537a7.95 7.95 0 00-7.95 7.95 7.95 7.95 0 007.95 7.951 7.95 7.95 0 007.95-7.95 7.95 7.95 0 00-7.95-7.95zm0 13.111a5.159 5.159 0 01-5.16-5.16 5.16 5.16 0 015.16-5.16 5.16 5.16 0 015.16 5.16 5.158 5.158 0 01-5.16 5.16z"/><path d="M22.852.1c-2.85-.133-9.911-.126-12.765 0C7.58.218 5.368.823 3.585 2.606.605 5.586.986 9.601.986 15.49c0 6.027-.335 9.95 2.6 12.884 2.99 2.99 7.064 2.599 12.883 2.599 5.97 0 8.03.004 10.142-.814 2.87-1.114 5.036-3.68 5.248-8.287.134-2.852.126-9.912 0-12.765C31.603 3.667 28.684.369 22.852.1zm4.513 26.302c-1.954 1.954-4.664 1.78-10.933 1.78-6.456 0-9.044.095-10.933-1.8-2.176-2.164-1.782-5.641-1.782-10.913 0-7.133-.732-12.27 6.427-12.637 1.645-.058 2.13-.077 6.27-.077l.058.038c6.88 0 12.278-.72 12.602 6.438.074 1.633.09 2.124.09 6.258 0 6.38.12 8.984-1.8 10.913z"/><path d="M24.736 9.081a1.858 1.858 0 100-3.715 1.858 1.858 0 000 3.715z"/></g><defs><clipPath id="gclip0_4_1802"><path fill="#fff" transform="translate(.973)" d="M0 0h30.986v30.986H0z"/></clipPath></defs></svg><svg fill="none" viewBox="0 0 48 48" id="phone" xmlns="http://www.w3.org/2000/svg"><path fill-rule="evenodd" clip-rule="evenodd" d="M45.08 35.484A23.893 23.893 0 0048 24C48 10.745 37.255 0 24 0S0 10.745 0 24s10.745 24 24 24c4.245 0 8.232-1.102 11.691-3.035-3.16-.271-6.552-2.201-10.097-5.747l-9.814-9.813c-3.03-3.03-4.889-5.964-5.527-8.722-.765-3.309.205-6.345 2.884-9.023l1.694-1.693a3.276 3.276 0 012.329-.964c.534 0 1.066.132 1.539.382 2.532 1.34 5.28 5.994 5.395 6.191.49.86.643 1.74.436 2.49a2.219 2.219 0 01-1.032 1.332c-.814.681-1.766 1.526-1.916 1.732-1.068 1.577-.943 2.834.422 4.199l7.666 7.666c1.373 1.374 2.615 1.496 4.2.42.205-.148 1.05-1.1 1.73-1.913.43-.724 1.141-1.122 2.01-1.122.584 0 1.208.18 1.806.52.183.108 3.913 2.31 5.663 4.584z" fill="#F0998D"/></svg><svg fill="none" viewBox="0 0 100 100" id="play" xmlns="http://www.w3.org/2000/svg"><g filter="url(#ifilter0_b_4_1776)"><circle cx="50" cy="50" r="50" fill="#fff" fill-opacity=".24"/></g><circle cx="50" cy="50" r="40" fill="#F0998D"/><path d="M65 48.768c1.333.77 1.333 2.694 0 3.464L44.75 63.923c-1.333.77-3-.192-3-1.732V38.81c0-1.54 1.667-2.502 3-1.732L65 48.767z" fill="#fff"/><defs><filter id="ifilter0_b_4_1776" x="-15" y="-15" width="130" height="130" filterUnits="userSpaceOnUse" color-interpolation-filters="sRGB"><feFlood flood-opacity="0" result="BackgroundImageFix"/><feGaussianBlur in="BackgroundImage" stdDeviation="7.5"/><feComposite in2="SourceAlpha" operator="in" result="effect1_backgroundBlur_4_1776"/><feBlend in="SourceGraphic" in2="effect1_backgroundBlur_4_1776" result="shape"/></filter></defs></svg><svg fill="none" viewBox="0 0 50 51" id="ring-arrow-right" xmlns="http://www.w3.org/2000/svg"><circle cx="25" cy="25.002" r="24" stroke="currentColor" stroke-width="2"/><path stroke="#1D2736" stroke-width="2" stroke-linecap="round" d="M18 25.002h14M29.414 21.002L33 24.588M29 28.588l3.586-3.586"/></svg><svg fill="none" viewBox="0 0 22 17" id="star" xmlns="http://www.w3.org/2000/svg"><g filter="url(#kfilter0_d_1634_65)" clip-path="url(#kclip0_1634_65)"><path d="M18.293 6.465a.326.326 0 00-.264-.217l-5.93-.84L9.45.179A.328.328 0 009.154 0a.328.328 0 00-.294.178L6.21 5.41l-5.928.84a.326.326 0 00-.265.216.313.313 0 00.083.327l4.29 4.072-1.013 5.75c-.02.12.03.24.13.312a.332.332 0 00.345.024l5.304-2.714 5.303 2.714a.336.336 0 00.345-.024.315.315 0 00.13-.312l-1.013-5.75 4.29-4.072a.314.314 0 00.083-.327z" fill="url(#kpaint0_linear_1634_65)"/></g><defs><linearGradient id="kpaint0_linear_1634_65" x1="4.069" y1="2.056" x2="13.383" y2="16.152" gradientUnits="userSpaceOnUse"><stop stop-color="#F2D063"/><stop offset="1" stop-color="#F8AE2E"/></linearGradient><clipPath id="kclip0_1634_65"><path fill="#fff" d="M0 0h22v17H0z"/></clipPath><filter id="kfilter0_d_1634_65" x="-5" y="-5" width="28.31" height="26.987" filterUnits="userSpaceOnUse" color-interpolation-filters="sRGB"><feFlood flood-opacity="0" result="BackgroundImageFix"/><feColorMatrix in="SourceAlpha" values="0 0 0 0 0 0 0 0 0 0 0 0 0 0 0 0 0 0 127 0" result="hardAlpha"/><feOffset/><feGaussianBlur stdDeviation="2.5"/><feComposite in2="hardAlpha" operator="out"/><feColorMatrix values="0 0 0 0 0.94902 0 0 0 0 0.815686 0 0 0 0 0.388235 0 0 0 0.36 0"/><feBlend in2="BackgroundImageFix" result="effect1_dropShadow_1634_65"/><feBlend in="SourceGraphic" in2="effect1_dropShadow_1634_65" result="shape"/></filter></defs></svg></svg>